<svg width="36" height="35" viewBox="0 0 36 35" fill="none" xmlns="http://www.w3.org/2000/svg">
<g clip-path="url(#clip0_296_13923)">
<path d="M13.6263 20.0519C10.2138 20.0519 3.41797 21.7582 3.41797 25.1561V27.7082H23.8346V25.1561C23.8346 21.7582 17.0388 20.0519 13.6263 20.0519ZM6.83047 24.7915C8.05547 23.9457 11.0159 22.9686 13.6263 22.9686C16.2367 22.9686 19.1971 23.9457 20.4221 24.7915H6.83047ZM13.6263 17.4998C16.4409 17.4998 18.7305 15.2103 18.7305 12.3957C18.7305 9.58109 16.4409 7.2915 13.6263 7.2915C10.8117 7.2915 8.52214 9.58109 8.52214 12.3957C8.52214 15.2103 10.8117 17.4998 13.6263 17.4998ZM13.6263 10.2082C14.8367 10.2082 15.8138 11.1853 15.8138 12.3957C15.8138 13.6061 14.8367 14.5832 13.6263 14.5832C12.4159 14.5832 11.4388 13.6061 11.4388 12.3957C11.4388 11.1853 12.4159 10.2082 13.6263 10.2082ZM23.893 20.1394C25.5846 21.3644 26.7513 22.9978 26.7513 25.1561V27.7082H32.5846V25.1561C32.5846 22.2103 27.4805 20.5332 23.893 20.1394ZM22.3763 17.4998C25.1909 17.4998 27.4805 15.2103 27.4805 12.3957C27.4805 9.58109 25.1909 7.2915 22.3763 7.2915C21.5888 7.2915 20.8596 7.48109 20.1888 7.80192C21.1076 9.09984 21.6471 10.6894 21.6471 12.3957C21.6471 14.1019 21.1076 15.6915 20.1888 16.9894C20.8596 17.3103 21.5888 17.4998 22.3763 17.4998Z" fill="#E2E2E2"/>
</g>
<defs>
<clipPath id="clip0_296_13923">
<rect width="35" height="35" fill="white" transform="translate(0.5)"/>
</clipPath>
</defs>
</svg>
