<svg width="36" height="35" viewBox="0 0 36 35" fill="none" xmlns="http://www.w3.org/2000/svg">
<g clip-path="url(#clip0_517_14326)">
<path d="M28.2083 2.91667H22.1125C21.5 1.225 19.8958 0 18 0C16.1042 0 14.5 1.225 13.8875 2.91667H7.79167C6.1875 2.91667 4.875 4.22917 4.875 5.83333V29.1667C4.875 30.7708 6.1875 32.0833 7.79167 32.0833H28.2083C29.8125 32.0833 31.125 30.7708 31.125 29.1667V5.83333C31.125 4.22917 29.8125 2.91667 28.2083 2.91667ZM18 2.91667C18.8021 2.91667 19.4583 3.57292 19.4583 4.375C19.4583 5.17708 18.8021 5.83333 18 5.83333C17.1979 5.83333 16.5417 5.17708 16.5417 4.375C16.5417 3.57292 17.1979 2.91667 18 2.91667ZM28.2083 29.1667H7.79167V5.83333H10.7083V10.2083H25.2917V5.83333H28.2083V29.1667Z" fill="#E2E2E2"/>
</g>
<defs>
<clipPath id="clip0_517_14326">
<rect width="35" height="35" fill="white" transform="translate(0.5)"/>
</clipPath>
</defs>
</svg>
