<svg width="36" height="35" viewBox="0 0 36 35" fill="none" xmlns="http://www.w3.org/2000/svg">
<g clip-path="url(#clip0_166_29482)">
<path d="M17.9867 2.9165C9.93672 2.9165 3.41797 9.44984 3.41797 17.4998C3.41797 25.5498 9.93672 32.0832 17.9867 32.0832C26.0513 32.0832 32.5846 25.5498 32.5846 17.4998C32.5846 9.44984 26.0513 2.9165 17.9867 2.9165ZM18.0013 29.1665C11.5555 29.1665 6.33464 23.9457 6.33464 17.4998C6.33464 11.054 11.5555 5.83317 18.0013 5.83317C24.4471 5.83317 29.668 11.054 29.668 17.4998C29.668 23.9457 24.4471 29.1665 18.0013 29.1665ZM18.7305 10.2082H16.543V18.9582L24.1992 23.5519L25.293 21.7582L18.7305 17.8644V10.2082Z" fill="#929292"/>
</g>
<defs>
<clipPath id="clip0_166_29482">
<rect width="35" height="35" fill="white" transform="translate(0.5)"/>
</clipPath>
</defs>
</svg>
