<svg width="36" height="35" viewBox="0 0 36 35" fill="none" xmlns="http://www.w3.org/2000/svg">
<g clip-path="url(#clip0_166_29472)">
<path d="M28.2083 4.37516H26.75V1.4585H23.8333V4.37516H12.1667V1.4585H9.25V4.37516H7.79167C6.1875 4.37516 4.875 5.68766 4.875 7.29183V27.7085C4.875 29.3127 6.1875 30.6252 7.79167 30.6252H28.2083C29.8125 30.6252 31.125 29.3127 31.125 27.7085V7.29183C31.125 5.68766 29.8125 4.37516 28.2083 4.37516ZM28.2083 27.7085H7.79167V13.1252H28.2083V27.7085ZM7.79167 10.2085V7.29183H28.2083V10.2085H7.79167ZM10.7083 16.0418H25.2917V18.9585H10.7083V16.0418ZM10.7083 21.8752H20.9167V24.7918H10.7083V21.8752Z" fill="#929292"/>
</g>
<defs>
<clipPath id="clip0_166_29472">
<rect width="35" height="35" fill="white" transform="translate(0.5)"/>
</clipPath>
</defs>
</svg>
