<svg width="100" height="100" viewBox="0 0 100 100" fill="none" xmlns="http://www.w3.org/2000/svg">
<rect width="100" height="100" fill="#AE0001"/>
<path fill-rule="evenodd" clip-rule="evenodd" d="M45.7142 24.1594C45.3655 24.3008 45.2143 24.5052 44.5816 25.69C43.2637 28.1585 42.361 29.1843 39.5575 31.3996C39.1015 31.7599 38.7284 32.1151 38.7284 32.1887C38.7284 32.2625 38.8701 32.4521 39.0434 32.61C39.5842 33.103 42.3784 35.0462 42.5466 35.0462C42.7567 35.0462 43.3086 35.4727 43.3162 35.6409C43.3267 35.876 44.2362 36.4987 44.5689 36.4987C44.7975 36.4987 44.9726 36.6085 45.1924 36.8898C45.4184 37.1787 45.5852 37.2808 45.8314 37.2808C46.0148 37.2808 46.2312 37.3598 46.3125 37.4565C46.7551 37.9827 46.8944 38.0805 47.1194 38.0232C47.2894 37.9797 47.4564 38.069 47.7101 38.339C47.956 38.6007 48.1857 38.7266 48.4638 38.7522C48.7565 38.7793 48.8751 38.8492 48.906 39.0127C48.9567 39.2796 49.1995 39.4316 49.628 39.4645C50.095 39.5003 50.6807 39.8761 50.7562 40.1884C50.8361 40.5186 51.5185 40.9952 51.7906 40.9108C52.1267 40.8068 52.5924 41.0579 52.7187 41.4112C52.867 41.826 53.4636 42.1971 53.9822 42.1971C54.5076 42.1971 54.9863 42.4237 55.0616 42.7079C55.1593 43.0767 55.7421 43.3513 56.2568 43.271C56.7927 43.1875 57.2336 43.3351 57.311 43.6241C57.3838 43.8956 57.6538 43.9342 59.461 43.9308C60.8724 43.9281 60.901 43.923 61.4679 43.5715C61.7843 43.3754 62.154 43.0687 62.2896 42.8899C62.6089 42.4685 62.8103 41.7283 62.7108 41.3416C62.6657 41.1665 61.9552 40.3452 61.0425 39.4134C60.1462 38.4983 59.4257 37.6669 59.3909 37.5075C59.3569 37.3521 59.2081 36.9736 59.0603 36.6663C58.6193 35.75 56.8884 32.1855 56.1124 30.5957C55.9785 30.3214 55.7586 30.0681 55.6047 30.0112C55.3157 29.904 55.1829 29.6474 54.925 28.6983C54.8364 28.3718 54.6596 27.8815 54.5323 27.6089C54.2867 27.083 54.0467 26.9936 53.4814 27.2173C53.3367 27.2746 52.909 27.408 52.531 27.5139C52.1312 27.6258 51.6927 27.8441 51.4824 28.0358C51.1562 28.3334 51.0727 28.3576 50.6233 28.2856C50.0272 28.1898 49.026 27.7487 48.7867 27.4764C48.4876 27.1359 48.2632 26.4155 48.1771 25.5186C48.0797 24.5051 47.9052 24.3013 46.9653 24.1046C46.2555 23.9561 46.2102 23.9582 45.7142 24.1594ZM47.1356 26.0314C47.3211 26.2747 47.3851 26.5512 47.4177 27.2504L47.4597 28.1547L47.9908 28.6675C48.3275 28.9924 48.9332 29.3769 49.6451 29.7171L50.7681 30.254L51.7642 29.6491C53.464 28.617 53.4657 28.6175 53.9728 30.3737C54.0914 30.7844 54.3069 31.2451 54.452 31.3977C54.5969 31.5502 55.0486 32.2407 55.4559 32.932C55.8633 33.6234 56.3194 34.3944 56.4697 34.6455C57.2663 35.9763 57.9719 37.2599 57.9719 37.3781C57.9719 37.6377 58.3856 38.1271 59.6614 39.3766C60.7847 40.4768 60.9501 40.6863 60.9501 41.0098C60.9501 41.9431 59.5306 42.5029 58.1721 42.1053C57.9674 42.0455 57.4135 41.9114 56.941 41.8073C56.4685 41.7033 55.7984 41.4641 55.4519 41.2759C55.1054 41.0877 54.6673 40.849 54.4783 40.7457C54.2893 40.6422 53.8254 40.3903 53.4474 40.1859C53.0694 39.9814 52.5797 39.7153 52.3592 39.5944C52.1387 39.4735 51.314 39.0223 50.5265 38.5916C49.739 38.1609 48.7854 37.6093 48.4074 37.3657C46.8969 36.3927 41.592 32.6557 41.592 32.5646C41.592 32.4292 42.5376 31.5856 42.6912 31.5838C42.8001 31.5827 48.0482 35.1824 50.3547 36.8405C51.2235 37.4651 58.3625 40.968 58.7666 40.968C59.2424 40.968 58.9918 40.5749 58.111 39.9398C57.1968 39.2807 55.9767 38.3761 54.8262 37.5043C54.4612 37.2278 54.0533 36.9275 53.9196 36.8371C53.7859 36.7469 53.2126 36.3167 52.6456 35.8813C52.0786 35.4458 51.4776 34.9919 51.31 34.8723C51.1424 34.7529 50.5774 34.1523 50.0545 33.5378C49.5315 32.9232 48.7665 32.0398 48.3546 31.5745C47.9427 31.1094 47.5025 30.6065 47.3765 30.457C47.2505 30.3076 46.7603 29.7329 46.287 29.18C45.8137 28.627 45.3627 28.0941 45.2847 27.9956C45.1796 27.8628 45.1736 27.7189 45.2618 27.437C45.3272 27.2281 45.4363 26.8813 45.5043 26.6662C45.8082 25.7049 46.6401 25.3811 47.1356 26.0314ZM45.1791 29.388C45.2765 29.5331 45.4277 29.7216 45.515 29.807C46.0738 30.354 48.0065 33.2334 48.0065 33.5191C48.0065 33.7014 47.6768 33.5386 46.4243 32.7379C45.688 32.2672 45.0599 31.8523 45.0284 31.8161C44.9969 31.7798 44.6789 31.5582 44.3219 31.3238C43.9647 31.0893 43.6466 30.8315 43.6149 30.7508C43.5832 30.6702 43.7863 30.2713 44.0661 29.8642C44.6185 29.0611 44.8834 28.9477 45.1791 29.388ZM29.4122 39.59C29.2843 39.7146 29.3217 48.0972 29.4503 48.1748C29.5133 48.2127 29.5649 48.1888 29.5649 48.1217C29.5649 48.0545 29.854 47.3854 30.2073 46.6346C30.5607 45.8839 30.976 44.9932 31.1304 44.6552C31.2849 44.3172 31.5097 43.8395 31.6301 43.5937C32.4279 41.9652 33.4351 39.6793 33.3878 39.6045C33.3199 39.4975 29.5213 39.4835 29.4122 39.59ZM36.5726 39.6313C36.5948 39.6964 37.7204 40.1048 39.0739 40.5388C40.4273 40.973 41.6379 41.3686 41.7639 41.4179C41.8898 41.4673 42.2764 41.5948 42.6229 41.7014C42.9694 41.8079 43.588 42.0068 43.9975 42.1433C44.407 42.2799 45.0513 42.4841 45.4293 42.5971C45.8073 42.7101 46.1832 42.8502 46.2645 42.9085C46.5712 43.1279 46.6384 42.7887 46.6067 41.1826L46.5747 39.5713L41.5534 39.5422C38.0597 39.522 36.5445 39.5491 36.5726 39.6313ZM34.8841 40.1077C34.8527 40.1877 34.8413 40.9292 34.8591 41.7557L34.8912 43.2585L40.017 43.2876C42.8363 43.3035 45.1418 43.2784 45.1404 43.2317C45.139 43.185 43.6572 42.6762 41.8472 42.101C38.0226 40.8855 37.605 40.7509 37.2966 40.6341C36.8013 40.4465 35.1996 39.9624 35.0741 39.9624C35.001 39.9624 34.9156 40.0278 34.8841 40.1077ZM33.5759 41.1016C33.4325 41.4276 33.146 42.0462 32.9392 42.4764C32.3297 43.7446 31.7861 44.8885 31.4522 45.6049C31.2805 45.9736 30.8629 46.8701 30.5242 47.597C30.1856 48.3239 29.9085 48.9913 29.9085 49.08C29.9085 49.2158 30.2313 49.2365 31.9417 49.2109L33.9748 49.1803L34.0048 44.9414C34.0213 42.61 33.9903 40.6591 33.9356 40.6058C33.8799 40.5513 33.7227 40.7678 33.5759 41.1016ZM64.2719 44.027C64.2719 45.8317 64.236 46.4446 64.1252 46.5343C64.0446 46.5995 63.6966 46.6686 63.3521 46.6876L62.7255 46.7222L62.693 47.9234L62.6604 49.1245H63.2446C64.3485 49.1245 64.2719 48.8211 64.2719 53.1947V57.0336L64.8732 57.5399C65.2039 57.8184 65.8674 58.3768 66.3473 58.7809L67.2201 59.5156H68.0547C68.9645 59.5156 69.0432 59.4774 70.2223 58.462C70.5127 58.2118 70.9149 57.8735 71.1158 57.71C71.8107 57.1448 71.7428 57.1186 69.4264 57.0575L67.3073 57.0016L67.2772 53.216C67.2561 50.5727 67.2852 49.3854 67.3737 49.2814C67.4592 49.1808 67.8566 49.1219 68.5944 49.1005C69.4241 49.0763 69.711 49.0282 69.782 48.901C69.8336 48.8088 70.1396 48.3126 70.4622 47.7983C70.7862 47.2816 71.0049 46.8207 70.9508 46.7679C70.897 46.7154 70.0552 46.6585 69.0801 46.6414L67.3073 46.6105L67.2758 44.7191C67.258 43.6511 67.1937 42.7682 67.1279 42.6909C67.0639 42.6157 66.8834 42.5228 66.7268 42.4844C66.4402 42.4143 65.3018 41.9459 64.9321 41.7459C64.8227 41.6868 64.6294 41.6384 64.5026 41.6384C64.2785 41.6384 64.2719 41.7076 64.2719 44.027ZM42.0121 44.171C41.97 44.2119 41.9357 46.4594 41.9357 49.1655C41.9357 51.8714 41.9779 54.0377 42.0296 53.9793C42.0813 53.9209 42.2676 53.5212 42.4437 53.091C42.6197 52.6608 42.861 52.0957 42.9797 51.8352C43.0985 51.5747 43.1957 51.3362 43.1957 51.3052C43.1957 51.2585 44.235 48.7259 44.572 47.9513C45.2681 46.3515 45.939 44.6962 46.0097 44.4038L46.0841 44.0965H44.0862C42.9874 44.0965 42.054 44.13 42.0121 44.171ZM46.3666 45.3982C46.3236 45.4402 46.2884 45.5402 46.2884 45.6204C46.2884 45.7008 46.1647 46.0317 46.0133 46.3561C45.6532 47.1285 44.4556 49.9806 44.4556 50.0661C44.4556 50.1026 44.3586 50.3456 44.2401 50.6062C44.1214 50.8666 43.7312 51.7837 43.3726 52.6441C43.0141 53.5044 42.673 54.2956 42.6146 54.4023C42.3263 54.9291 42.3744 54.9417 44.5416 54.9092L46.5747 54.8787L46.6046 50.1928C46.6211 47.6155 46.5919 45.4652 46.5397 45.4143C46.4876 45.3635 46.4097 45.3562 46.3666 45.3982ZM48.6557 46.7409C48.6136 46.7818 48.5793 49.1171 48.5793 51.9303V57.0452L49.7526 58.029C50.398 58.5701 51.0546 59.1259 51.2118 59.2642C51.4941 59.5124 51.5395 59.5156 54.721 59.5156H57.9442L59.1305 58.538C59.783 58.0003 60.4598 57.4254 60.6346 57.2605L60.9524 56.9607L60.9226 51.8415L60.8928 46.7222H59.461H58.0292L57.9719 51.8619L57.9146 57.0016L54.736 57.0314L51.5574 57.0611V52.0405C51.5574 49.2791 51.5261 46.9403 51.4879 46.8431C51.4299 46.6959 51.1943 46.6664 50.0752 46.6664C49.3364 46.6664 48.6976 46.6999 48.6557 46.7409ZM29.9085 50.0076C29.9085 50.0659 30.0823 50.4819 30.2947 50.932C30.5071 51.382 30.7963 52.0016 30.9374 52.3089C31.1999 52.8804 31.5788 53.6778 32.4138 55.4159C32.6738 55.9573 32.8866 56.4212 32.8866 56.447C32.8866 56.4728 33.0593 56.8596 33.2703 57.3064C33.4812 57.7534 33.6891 58.2154 33.7322 58.3332C33.973 58.9918 34.033 58.0689 34.0048 54.1455L33.9748 49.9625L31.9417 49.932C30.7119 49.9135 29.9085 49.9434 29.9085 50.0076ZM29.3358 55.2139V59.5156H31.3976C32.6649 59.5156 33.4594 59.4735 33.4594 59.4063C33.4594 59.3023 33.2874 58.9286 32.1287 56.514C31.8525 55.9387 31.6267 55.4521 31.6267 55.4329C31.6267 55.3921 30.974 53.9965 30.427 52.8675C30.2187 52.4374 29.933 51.8214 29.7923 51.4988C29.6517 51.1762 29.4914 50.9122 29.4362 50.9122C29.3804 50.9122 29.3358 52.8234 29.3358 55.2139ZM34.9484 57.4473C34.9484 58.4713 34.9931 59.1804 35.0576 59.1804C35.1176 59.1804 35.2852 59.1355 35.4299 59.0805C35.5745 59.0257 36.0023 58.8896 36.3803 58.7783C36.7583 58.6669 37.1164 58.5359 37.1763 58.4871C37.2361 58.4383 37.3762 58.3983 37.4874 58.3983C37.5987 58.3983 37.859 58.3289 38.0659 58.244C38.5421 58.0487 39.8239 57.6195 40.2748 57.5044C40.4638 57.4562 40.9534 57.3032 41.3629 57.1645C42.2137 56.8763 43.3012 56.5158 44.2489 56.208C44.6075 56.0915 44.9168 55.9458 44.9362 55.8843C44.959 55.8113 43.2339 55.7625 39.9598 55.7434L34.9484 55.7144V57.4473ZM41.3919 57.7781C38.7305 58.6514 36.5178 59.4001 36.4749 59.4419C36.432 59.4838 38.687 59.5049 41.4859 59.4889L46.5747 59.4598V57.8412C46.5747 56.4841 46.547 56.22 46.4029 56.2063C46.3084 56.1975 44.0535 56.9047 41.3919 57.7781ZM31.1636 63.7722C30.6308 64.2083 30.001 64.741 29.764 64.956L29.3332 65.347L29.3631 69.9453L29.393 74.5437H30.653H31.913L31.9429 69.9684C31.9658 66.4788 32.0066 65.3723 32.1147 65.3053C32.1928 65.257 33.1715 65.2167 34.2898 65.2157L36.323 65.214V69.73C36.323 72.2138 36.3543 74.3256 36.3925 74.4228C36.4497 74.5681 36.6714 74.5995 37.6385 74.5995C38.4815 74.5995 38.851 74.5572 38.9422 74.4499C39.0297 74.347 39.0788 72.8915 39.0994 69.7851L39.1293 65.2699H41.2484H43.3675L43.3974 69.9347L43.4273 74.5995H44.5621C45.1862 74.5995 45.7784 74.569 45.8781 74.5317C46.0392 74.4714 46.0593 73.9592 46.0593 69.9072C46.0593 64.6962 46.2026 65.3457 44.7993 64.1957C44.3268 63.8084 43.9144 63.4613 43.8829 63.4245C43.8514 63.3876 43.6982 63.2724 43.5424 63.1684C43.286 62.9972 42.7337 62.9793 37.6958 62.9793H32.1324L31.1636 63.7722ZM50.1798 63.1714C50.024 63.277 49.7419 63.4968 49.5529 63.6597C49.3639 63.8226 48.9258 64.1968 48.5793 64.4914C48.2328 64.7859 47.9323 65.0684 47.9116 65.119C47.8908 65.1696 49.6949 65.2244 51.9206 65.2405L55.9674 65.2699L56.0005 66.3147C56.0218 66.989 55.9864 67.4149 55.9005 67.5158C55.7935 67.6415 55.2468 67.6721 53.1051 67.6721C50.052 67.6721 50.5593 67.5124 48.7224 69.0513L47.6629 69.9389V71.0824V72.2258L48.5221 72.9758C48.9947 73.3885 49.6252 73.9225 49.9232 74.1628L50.465 74.5995H53.1788H55.8926L56.2736 74.2924C56.4832 74.1234 56.7577 73.8921 56.8837 73.7785C57.0097 73.6648 57.4865 73.2682 57.9433 72.8974L58.7737 72.2231V68.7823V65.3414L58.1151 64.7789C57.7528 64.4696 57.1218 63.9381 56.7127 63.5979L55.9691 62.9793H53.216C50.7991 62.9793 50.4283 63.0028 50.1798 63.1714ZM60.459 63.0486C60.42 63.0868 60.566 63.3894 60.7835 63.7212C61.0012 64.053 61.1792 64.3435 61.1792 64.3668C61.1792 64.3902 61.5716 65.0553 62.0513 65.8452C63.247 67.8139 63.6991 68.6278 63.6991 68.8114C63.6991 68.8971 63.4672 69.3342 63.1837 69.7828C62.9002 70.2313 62.6682 70.6196 62.6682 70.6455C62.6682 70.6716 62.4105 71.0982 62.0955 71.5936C61.7805 72.089 61.5228 72.5165 61.5228 72.5435C61.5228 72.5706 61.4022 72.7803 61.2546 73.0096C60.7274 73.829 60.3951 74.4678 60.462 74.5332C60.4995 74.5697 61.0399 74.5995 61.6629 74.5995C62.7929 74.5995 62.7965 74.5986 63.1328 74.2394C63.3183 74.0414 63.47 73.8394 63.47 73.7906C63.47 73.7418 63.7278 73.2964 64.0428 72.801C64.3578 72.3055 64.6155 71.88 64.6155 71.8552C64.6155 71.8305 64.8217 71.4815 65.0737 71.0799C65.3257 70.6784 65.5318 70.3058 65.5318 70.2519C65.5318 70.1175 65.8147 70.0229 65.9483 70.1127C66.0561 70.1851 67.0209 71.6451 67.0209 71.7358C67.0209 71.8616 68.5659 74.3385 68.7201 74.4599C68.935 74.629 71.2591 74.6577 71.2591 74.4911C71.2591 74.3662 70.9789 73.8635 70.2918 72.7559C69.2975 71.153 68.7051 70.1647 68.2422 69.3371C67.8708 68.6732 67.8407 68.7902 68.7677 67.3008C69.067 66.82 69.3118 66.4065 69.3118 66.382C69.3118 66.3401 69.7947 65.544 70.8207 63.8946C71.0618 63.507 71.2591 63.1425 71.2591 63.0846C71.2591 63.0251 70.7108 62.9793 69.9977 62.9793H68.7362L68.3539 63.5659C68.1437 63.8885 67.8135 64.4291 67.6202 64.7671C67.427 65.105 67.0068 65.8044 66.6867 66.3213C66.3665 66.838 66.1046 67.3031 66.1046 67.3548C66.1046 67.4064 66.0071 67.4486 65.888 67.4486C65.6978 67.4486 64.993 66.4096 64.1068 64.8229C64.0381 64.7 63.7578 64.235 63.4839 63.7894L62.9858 62.9793H61.758C61.0826 62.9793 60.4981 63.0105 60.459 63.0486ZM55.8354 69.9364C56.0046 70.057 56.0288 70.241 56.0005 71.1934L55.9674 72.309L53.2263 72.3391C51.11 72.3622 50.4643 72.3367 50.3932 72.2273C50.3424 72.1493 50.3002 71.623 50.2991 71.0576C50.2977 70.1953 50.3297 70.0112 50.4979 69.9157C50.807 69.7401 55.5862 69.7586 55.8354 69.9364Z" fill="white"/>
</svg>
